<svg id="visual" viewBox="0 0 900 600" width="900" height="600" xmlns="http://www.w3.org/2000/svg" xmlns:xlink="http://www.w3.org/1999/xlink" version="1.1"><path d="M0 320L21.5 320.8C43 321.7 86 323.3 128.8 313.3C171.7 303.3 214.3 281.7 257.2 271.7C300 261.7 343 263.3 385.8 288C428.7 312.7 471.3 360.3 514.2 373.5C557 386.7 600 365.3 642.8 359.8C685.7 354.3 728.3 364.7 771.2 366.5C814 368.3 857 361.7 878.5 358.3L900 355L900 601L878.5 601C857 601 814 601 771.2 601C728.3 601 685.7 601 642.8 601C600 601 557 601 514.2 601C471.3 601 428.7 601 385.8 601C343 601 300 601 257.2 601C214.3 601 171.7 601 128.8 601C86 601 43 601 21.5 601L0 601Z" fill="#ff0066"></path><path d="M0 379L21.5 385.8C43 392.7 86 406.3 128.8 418.3C171.7 430.3 214.3 440.7 257.2 443.8C300 447 343 443 385.8 433.2C428.7 423.3 471.3 407.7 514.2 405.7C557 403.7 600 415.3 642.8 418C685.7 420.7 728.3 414.3 771.2 420.7C814 427 857 446 878.5 455.5L900 465L900 601L878.5 601C857 601 814 601 771.2 601C728.3 601 685.7 601 642.8 601C600 601 557 601 514.2 601C471.3 601 428.7 601 385.8 601C343 601 300 601 257.2 601C214.3 601 171.7 601 128.8 601C86 601 43 601 21.5 601L0 601Z" fill="#960041"></path><path d="M0 520L21.5 516.8C43 513.7 86 507.3 128.8 510.5C171.7 513.7 214.3 526.3 257.2 533.2C300 540 343 541 385.8 530.8C428.7 520.7 471.3 499.3 514.2 492.7C557 486 600 494 642.8 494.2C685.7 494.3 728.3 486.7 771.2 481.8C814 477 857 475 878.5 474L900 473L900 601L878.5 601C857 601 814 601 771.2 601C728.3 601 685.7 601 642.8 601C600 601 557 601 514.2 601C471.3 601 428.7 601 385.8 601C343 601 300 601 257.2 601C214.3 601 171.7 601 128.8 601C86 601 43 601 21.5 601L0 601Z" fill="#3a0119"></path></svg>