<svg id="visual" viewBox="0 0 450 900" width="450" height="900" xmlns="http://www.w3.org/2000/svg" xmlns:xlink="http://www.w3.org/1999/xlink" version="1.1"><path d="M0 163L7.5 154C15 145 30 127 45 118C60 109 75 109 90 107.5C105 106 120 103 135 112C150 121 165 142 180 148C195 154 210 145 225 151C240 157 255 178 270 182.5C285 187 300 175 315 169C330 163 345 163 360 157C375 151 390 139 405 131.5C420 124 435 121 442.5 119.5L450 118L450 0L442.5 0C435 0 420 0 405 0C390 0 375 0 360 0C345 0 330 0 315 0C300 0 285 0 270 0C255 0 240 0 225 0C210 0 195 0 180 0C165 0 150 0 135 0C120 0 105 0 90 0C75 0 60 0 45 0C30 0 15 0 7.5 0L0 0Z" fill="#750839"></path><path d="M0 244L7.5 239.5C15 235 30 226 45 220C60 214 75 211 90 211C105 211 120 214 135 220C150 226 165 235 180 239.5C195 244 210 244 225 248.5C240 253 255 262 270 259C285 256 300 241 315 239.5C330 238 345 250 360 245.5C375 241 390 220 405 215.5C420 211 435 223 442.5 229L450 235L450 116L442.5 117.5C435 119 420 122 405 129.5C390 137 375 149 360 155C345 161 330 161 315 167C300 173 285 185 270 180.5C255 176 240 155 225 149C210 143 195 152 180 146C165 140 150 119 135 110C120 101 105 104 90 105.5C75 107 60 107 45 116C30 125 15 143 7.5 152L0 161Z" fill="#3a0119"></path><path d="M0 568L7.5 551.5C15 535 30 502 45 476.5C60 451 75 433 90 430C105 427 120 439 135 439C150 439 165 427 180 421C195 415 210 415 225 433C240 451 255 487 270 506.5C285 526 300 529 315 523C330 517 345 502 360 490C375 478 390 469 405 457C420 445 435 430 442.5 422.5L450 415L450 233L442.5 227C435 221 420 209 405 213.5C390 218 375 239 360 243.5C345 248 330 236 315 237.5C300 239 285 254 270 257C255 260 240 251 225 246.5C210 242 195 242 180 237.5C165 233 150 224 135 218C120 212 105 209 90 209C75 209 60 212 45 218C30 224 15 233 7.5 237.5L0 242Z" fill="#2c0516"></path><path d="M0 748L7.5 742C15 736 30 724 45 712C60 700 75 688 90 689.5C105 691 120 706 135 707.5C150 709 165 697 180 692.5C195 688 210 691 225 695.5C240 700 255 706 270 706C285 706 300 700 315 701.5C330 703 345 712 360 715C375 718 390 715 405 709C420 703 435 694 442.5 689.5L450 685L450 413L442.5 420.5C435 428 420 443 405 455C390 467 375 476 360 488C345 500 330 515 315 521C300 527 285 524 270 504.5C255 485 240 449 225 431C210 413 195 413 180 419C165 425 150 437 135 437C120 437 105 425 90 428C75 431 60 449 45 474.5C30 500 15 533 7.5 549.5L0 566Z" fill="#2c0516"></path><path d="M0 838L7.5 838C15 838 30 838 45 833.5C60 829 75 820 90 814C105 808 120 805 135 806.5C150 808 165 814 180 817C195 820 210 820 225 823C240 826 255 832 270 832C285 832 300 826 315 823C330 820 345 820 360 823C375 826 390 832 405 833.5C420 835 435 832 442.5 830.5L450 829L450 683L442.5 687.5C435 692 420 701 405 707C390 713 375 716 360 713C345 710 330 701 315 699.5C300 698 285 704 270 704C255 704 240 698 225 693.5C210 689 195 686 180 690.5C165 695 150 707 135 705.5C120 704 105 689 90 687.5C75 686 60 698 45 710C30 722 15 734 7.5 740L0 746Z" fill="#3a0119"></path><path d="M0 901L7.5 901C15 901 30 901 45 901C60 901 75 901 90 901C105 901 120 901 135 901C150 901 165 901 180 901C195 901 210 901 225 901C240 901 255 901 270 901C285 901 300 901 315 901C330 901 345 901 360 901C375 901 390 901 405 901C420 901 435 901 442.5 901L450 901L450 827L442.5 828.5C435 830 420 833 405 831.5C390 830 375 824 360 821C345 818 330 818 315 821C300 824 285 830 270 830C255 830 240 824 225 821C210 818 195 818 180 815C165 812 150 806 135 804.5C120 803 105 806 90 812C75 818 60 827 45 831.5C30 836 15 836 7.5 836L0 836Z" fill="#750839"></path></svg>