<svg id="visual" viewBox="0 0 1440 2000" width="1440" height="2000" xmlns="http://www.w3.org/2000/svg" xmlns:xlink="http://www.w3.org/1999/xlink" version="1.1"><rect x="0" y="0" width="1440" height="2000" fill="#3A0119"></rect><defs><linearGradient id="grad1_0" x1="0%" y1="0%" x2="100%" y2="100%"><stop offset="30%" stop-color="#ff0066" stop-opacity="1"></stop><stop offset="70%" stop-color="#ff0066" stop-opacity="1"></stop></linearGradient></defs><defs><linearGradient id="grad1_1" x1="0%" y1="0%" x2="100%" y2="100%"><stop offset="30%" stop-color="#ff0066" stop-opacity="1"></stop><stop offset="70%" stop-color="#3a0119" stop-opacity="1"></stop></linearGradient></defs><defs><linearGradient id="grad2_0" x1="0%" y1="0%" x2="100%" y2="100%"><stop offset="30%" stop-color="#ff0066" stop-opacity="1"></stop><stop offset="70%" stop-color="#ff0066" stop-opacity="1"></stop></linearGradient></defs><defs><linearGradient id="grad2_1" x1="0%" y1="0%" x2="100%" y2="100%"><stop offset="30%" stop-color="#3a0119" stop-opacity="1"></stop><stop offset="70%" stop-color="#ff0066" stop-opacity="1"></stop></linearGradient></defs><g transform="translate(1440, 0)"><path d="M0 801C-89 803 -178 805 -247.5 761.8C-317 718.5 -367.1 629.9 -404.4 556.6C-441.7 483.3 -466.2 425.2 -518.6 376.8C-570.9 328.3 -651.1 289.6 -702.8 228.4C-754.5 167.2 -777.7 83.6 -801 0L0 0Z" fill="#960041"></path><path d="M0 400.5C-44.5 401.5 -89 402.5 -123.8 380.9C-158.5 359.2 -183.5 315 -202.2 278.3C-220.8 241.6 -233.1 212.6 -259.3 188.4C-285.5 164.2 -325.6 144.8 -351.4 114.2C-377.3 83.6 -388.9 41.8 -400.5 0L0 0Z" fill="#ff0066"></path></g><g transform="translate(0, 2000)"><path d="M0 -801C68 -740 135.9 -679 213.8 -658.1C291.7 -637.3 379.6 -656.6 460.8 -634.3C542 -611.9 616.6 -547.9 648 -470.8C679.3 -393.7 667.4 -303.4 685.7 -222.8C704 -142.2 752.5 -71.1 801 0L0 0Z" fill="#960041"></path><path d="M0 -400.5C34 -370 68 -339.5 106.9 -329.1C145.9 -318.6 189.8 -328.3 230.4 -317.1C271 -306 308.3 -274 324 -235.4C339.7 -196.8 333.7 -151.7 342.9 -111.4C352 -71.1 376.2 -35.5 400.5 0L0 0Z" fill="#ff0066"></path></g></svg>