<svg id="visual" viewBox="0 0 1440 1020" width="1440" height="1020" xmlns="http://www.w3.org/2000/svg" xmlns:xlink="http://www.w3.org/1999/xlink" version="1.1"><rect x="0" y="0" width="1440" height="1020" fill="#3A0119"></rect><path d="M0 446L60 466.3C120 486.7 240 527.3 360 527.5C480 527.7 600 487.3 720 458.8C840 430.3 960 413.7 1080 407.5C1200 401.3 1320 405.7 1380 407.8L1440 410L1440 1021L1380 1021C1320 1021 1200 1021 1080 1021C960 1021 840 1021 720 1021C600 1021 480 1021 360 1021C240 1021 120 1021 60 1021L0 1021Z" fill="#ff0066"></path><path d="M0 590L60 608.3C120 626.7 240 663.3 360 687.8C480 712.3 600 724.7 720 706C840 687.3 960 637.7 1080 618.2C1200 598.7 1320 609.3 1380 614.7L1440 620L1440 1021L1380 1021C1320 1021 1200 1021 1080 1021C960 1021 840 1021 720 1021C600 1021 480 1021 360 1021C240 1021 120 1021 60 1021L0 1021Z" fill="#960041"></path><path d="M0 796L60 791.2C120 786.3 240 776.7 360 787.2C480 797.7 600 828.3 720 851.8C840 875.3 960 891.7 1080 873C1200 854.3 1320 800.7 1380 773.8L1440 747L1440 1021L1380 1021C1320 1021 1200 1021 1080 1021C960 1021 840 1021 720 1021C600 1021 480 1021 360 1021C240 1021 120 1021 60 1021L0 1021Z" fill="#3a0119"></path></svg>