<svg id="visual" viewBox="0 0 675 900" width="675" height="900" xmlns="http://www.w3.org/2000/svg" xmlns:xlink="http://www.w3.org/1999/xlink" version="1.1"><path d="M0 163L11.3 154C22.7 145 45.3 127 67.8 118C90.3 109 112.7 109 135.2 107.5C157.7 106 180.3 103 202.8 112C225.3 121 247.7 142 270.2 148C292.7 154 315.3 145 337.8 151C360.3 157 382.7 178 405 182.5C427.3 187 449.7 175 472.2 169C494.7 163 517.3 163 540 157C562.7 151 585.3 139 607.8 131.5C630.3 124 652.7 121 663.8 119.5L675 118L675 0L663.8 0C652.7 0 630.3 0 607.8 0C585.3 0 562.7 0 540 0C517.3 0 494.7 0 472.2 0C449.7 0 427.3 0 405 0C382.7 0 360.3 0 337.8 0C315.3 0 292.7 0 270.2 0C247.7 0 225.3 0 202.8 0C180.3 0 157.7 0 135.2 0C112.7 0 90.3 0 67.8 0C45.3 0 22.7 0 11.3 0L0 0Z" fill="#750839"></path><path d="M0 244L11.3 239.5C22.7 235 45.3 226 67.8 220C90.3 214 112.7 211 135.2 211C157.7 211 180.3 214 202.8 220C225.3 226 247.7 235 270.2 239.5C292.7 244 315.3 244 337.8 248.5C360.3 253 382.7 262 405 259C427.3 256 449.7 241 472.2 239.5C494.7 238 517.3 250 540 245.5C562.7 241 585.3 220 607.8 215.5C630.3 211 652.7 223 663.8 229L675 235L675 116L663.8 117.5C652.7 119 630.3 122 607.8 129.5C585.3 137 562.7 149 540 155C517.3 161 494.7 161 472.2 167C449.7 173 427.3 185 405 180.5C382.7 176 360.3 155 337.8 149C315.3 143 292.7 152 270.2 146C247.7 140 225.3 119 202.8 110C180.3 101 157.7 104 135.2 105.5C112.7 107 90.3 107 67.8 116C45.3 125 22.7 143 11.3 152L0 161Z" fill="#3a0119"></path><path d="M0 568L11.3 551.5C22.7 535 45.3 502 67.8 476.5C90.3 451 112.7 433 135.2 430C157.7 427 180.3 439 202.8 439C225.3 439 247.7 427 270.2 421C292.7 415 315.3 415 337.8 433C360.3 451 382.7 487 405 506.5C427.3 526 449.7 529 472.2 523C494.7 517 517.3 502 540 490C562.7 478 585.3 469 607.8 457C630.3 445 652.7 430 663.8 422.5L675 415L675 233L663.8 227C652.7 221 630.3 209 607.8 213.5C585.3 218 562.7 239 540 243.5C517.3 248 494.7 236 472.2 237.5C449.7 239 427.3 254 405 257C382.7 260 360.3 251 337.8 246.5C315.3 242 292.7 242 270.2 237.5C247.7 233 225.3 224 202.8 218C180.3 212 157.7 209 135.2 209C112.7 209 90.3 212 67.8 218C45.3 224 22.7 233 11.3 237.5L0 242Z" fill="#2c0516"></path><path d="M0 748L11.3 742C22.7 736 45.3 724 67.8 712C90.3 700 112.7 688 135.2 689.5C157.7 691 180.3 706 202.8 707.5C225.3 709 247.7 697 270.2 692.5C292.7 688 315.3 691 337.8 695.5C360.3 700 382.7 706 405 706C427.3 706 449.7 700 472.2 701.5C494.7 703 517.3 712 540 715C562.7 718 585.3 715 607.8 709C630.3 703 652.7 694 663.8 689.5L675 685L675 413L663.8 420.5C652.7 428 630.3 443 607.8 455C585.3 467 562.7 476 540 488C517.3 500 494.7 515 472.2 521C449.7 527 427.3 524 405 504.5C382.7 485 360.3 449 337.8 431C315.3 413 292.7 413 270.2 419C247.7 425 225.3 437 202.8 437C180.3 437 157.7 425 135.2 428C112.7 431 90.3 449 67.8 474.5C45.3 500 22.7 533 11.3 549.5L0 566Z" fill="#2c0516"></path><path d="M0 838L11.3 838C22.7 838 45.3 838 67.8 833.5C90.3 829 112.7 820 135.2 814C157.7 808 180.3 805 202.8 806.5C225.3 808 247.7 814 270.2 817C292.7 820 315.3 820 337.8 823C360.3 826 382.7 832 405 832C427.3 832 449.7 826 472.2 823C494.7 820 517.3 820 540 823C562.7 826 585.3 832 607.8 833.5C630.3 835 652.7 832 663.8 830.5L675 829L675 683L663.8 687.5C652.7 692 630.3 701 607.8 707C585.3 713 562.7 716 540 713C517.3 710 494.7 701 472.2 699.5C449.7 698 427.3 704 405 704C382.7 704 360.3 698 337.8 693.5C315.3 689 292.7 686 270.2 690.5C247.7 695 225.3 707 202.8 705.5C180.3 704 157.7 689 135.2 687.5C112.7 686 90.3 698 67.8 710C45.3 722 22.7 734 11.3 740L0 746Z" fill="#3a0119"></path><path d="M0 901L11.3 901C22.7 901 45.3 901 67.8 901C90.3 901 112.7 901 135.2 901C157.7 901 180.3 901 202.8 901C225.3 901 247.7 901 270.2 901C292.7 901 315.3 901 337.8 901C360.3 901 382.7 901 405 901C427.3 901 449.7 901 472.2 901C494.7 901 517.3 901 540 901C562.7 901 585.3 901 607.8 901C630.3 901 652.7 901 663.8 901L675 901L675 827L663.8 828.5C652.7 830 630.3 833 607.8 831.5C585.3 830 562.7 824 540 821C517.3 818 494.7 818 472.2 821C449.7 824 427.3 830 405 830C382.7 830 360.3 824 337.8 821C315.3 818 292.7 818 270.2 815C247.7 812 225.3 806 202.8 804.5C180.3 803 157.7 806 135.2 812C112.7 818 90.3 827 67.8 831.5C45.3 836 22.7 836 11.3 836L0 836Z" fill="#750839"></path></svg>