<svg id="visual" viewBox="0 0 675 900" width="675" height="900" xmlns="http://www.w3.org/2000/svg" xmlns:xlink="http://www.w3.org/1999/xlink" version="1.1"><rect x="0" y="0" width="675" height="900" fill="#292929"></rect><g transform="translate(336.20999840686545 448.356964393179)"><path d="M164.5 -170.4C247.5 -126.3 373.1 -107.1 394 -59C414.9 -10.9 331.3 66 259.3 111.2C187.4 156.4 127 169.8 59.8 217.3C-7.4 264.7 -81.5 346.1 -131.7 338.2C-182 330.2 -208.3 232.9 -259.4 148C-310.4 63.2 -386.1 -9.1 -394 -87.6C-401.8 -166.1 -341.7 -250.8 -264.7 -296.1C-187.7 -341.4 -93.8 -347.2 -26.6 -315.5C40.7 -283.8 81.4 -214.6 164.5 -170.4" fill="#BB004B"></path></g></svg>