<svg id="visual" viewBox="0 0 450 900" width="450" height="900" xmlns="http://www.w3.org/2000/svg" xmlns:xlink="http://www.w3.org/1999/xlink" version="1.1"><path d="M0 419L15 428.3C30 437.7 60 456.3 90 445.5C120 434.7 150 394.3 180 401.8C210 409.3 240 464.7 270 463.2C300 461.7 330 403.3 360 390.8C390 378.3 420 411.7 435 428.3L450 445L450 901L435 901C420 901 390 901 360 901C330 901 300 901 270 901C240 901 210 901 180 901C150 901 120 901 90 901C60 901 30 901 15 901L0 901Z" fill="#FF0066" stroke-linecap="round" stroke-linejoin="miter"></path></svg>