<svg id="visual" viewBox="0 0 1440 1020" width="1440" height="1020" xmlns="http://www.w3.org/2000/svg" xmlns:xlink="http://www.w3.org/1999/xlink" version="1.1"><rect x="0" y="0" width="1440" height="1020" fill="#3A0119"></rect><defs><linearGradient id="grad1_0" x1="29.2%" y1="0%" x2="100%" y2="100%"><stop offset="21.764705882352942%" stop-color="#ff0066" stop-opacity="1"></stop><stop offset="78.23529411764707%" stop-color="#ff0066" stop-opacity="1"></stop></linearGradient></defs><defs><linearGradient id="grad1_1" x1="29.2%" y1="0%" x2="100%" y2="100%"><stop offset="21.764705882352942%" stop-color="#ff0066" stop-opacity="1"></stop><stop offset="78.23529411764707%" stop-color="#3a0119" stop-opacity="1"></stop></linearGradient></defs><defs><linearGradient id="grad2_0" x1="0%" y1="0%" x2="70.8%" y2="100%"><stop offset="21.764705882352942%" stop-color="#ff0066" stop-opacity="1"></stop><stop offset="78.23529411764707%" stop-color="#ff0066" stop-opacity="1"></stop></linearGradient></defs><defs><linearGradient id="grad2_1" x1="0%" y1="0%" x2="70.8%" y2="100%"><stop offset="21.764705882352942%" stop-color="#3a0119" stop-opacity="1"></stop><stop offset="78.23529411764707%" stop-color="#ff0066" stop-opacity="1"></stop></linearGradient></defs><g transform="translate(1440, 0)"><path d="M0 441.2C-43.1 401.3 -86.1 361.4 -143.5 346.5C-200.9 331.5 -272.7 341.4 -311.9 311.9C-351.2 282.5 -358 213.5 -374.2 155C-390.3 96.4 -415.7 48.2 -441.2 0L0 0Z" fill="#960041"></path><path d="M0 220.6C-21.5 200.6 -43.1 180.7 -71.8 173.2C-100.5 165.7 -136.3 170.7 -156 156C-175.6 141.2 -179 106.8 -187.1 77.5C-195.1 48.2 -207.9 24.1 -220.6 0L0 0Z" fill="#ff0066"></path></g><g transform="translate(0, 1020)"><path d="M0 -441.2C47.9 -414 95.8 -386.7 153.5 -370.5C211.1 -354.2 278.6 -348.9 311.9 -311.9C345.3 -275 344.5 -206.5 360.3 -149.2C376.2 -92 408.7 -46 441.2 0L0 0Z" fill="#960041"></path><path d="M0 -220.6C23.9 -207 47.9 -193.4 76.7 -185.2C105.6 -177.1 139.3 -174.4 156 -156C172.6 -137.5 172.2 -103.3 180.2 -74.6C188.1 -46 204.3 -23 220.6 0L0 0Z" fill="#ff0066"></path></g></svg>