<svg id="visual" viewBox="0 0 675 900" width="675" height="900" xmlns="http://www.w3.org/2000/svg" xmlns:xlink="http://www.w3.org/1999/xlink" version="1.1"><rect x="0" y="0" width="675" height="900" fill="#3A0119"></rect><defs><linearGradient id="grad1_0" x1="0%" y1="0%" x2="100%" y2="100%"><stop offset="30%" stop-color="#ff0066" stop-opacity="1"></stop><stop offset="70%" stop-color="#ff0066" stop-opacity="1"></stop></linearGradient></defs><defs><linearGradient id="grad1_1" x1="0%" y1="0%" x2="100%" y2="100%"><stop offset="30%" stop-color="#ff0066" stop-opacity="1"></stop><stop offset="70%" stop-color="#3a0119" stop-opacity="1"></stop></linearGradient></defs><defs><linearGradient id="grad2_0" x1="0%" y1="0%" x2="100%" y2="100%"><stop offset="30%" stop-color="#ff0066" stop-opacity="1"></stop><stop offset="70%" stop-color="#ff0066" stop-opacity="1"></stop></linearGradient></defs><defs><linearGradient id="grad2_1" x1="0%" y1="0%" x2="100%" y2="100%"><stop offset="30%" stop-color="#3a0119" stop-opacity="1"></stop><stop offset="70%" stop-color="#ff0066" stop-opacity="1"></stop></linearGradient></defs><g transform="translate(675, 0)"><path d="M0 337.5C-45.2 333.7 -90.4 330 -129.2 311.8C-168 293.6 -200.4 261.1 -227.7 227.7C-255 194.3 -277.3 160.2 -294.7 122.1C-312.2 84 -324.8 42 -337.5 0L0 0Z" fill="#960041"></path><path d="M0 168.8C-22.6 166.9 -45.2 165 -64.6 155.9C-84 146.8 -100.2 130.5 -113.8 113.8C-127.5 97.2 -138.6 80.1 -147.4 61C-156.1 42 -162.4 21 -168.7 0L0 0Z" fill="#ff0066"></path></g><g transform="translate(0, 900)"><path d="M0 -337.5C44.4 -333.6 88.8 -329.7 129.2 -311.8C169.5 -293.9 205.9 -262.1 225.6 -225.6C245.3 -189 248.3 -147.8 264.2 -109.4C280.1 -71.1 308.8 -35.5 337.5 0L0 0Z" fill="#960041"></path><path d="M0 -168.7C22.2 -166.8 44.4 -164.8 64.6 -155.9C84.8 -147 102.9 -131 112.8 -112.8C122.6 -94.5 124.2 -73.9 132.1 -54.7C140.1 -35.5 154.4 -17.8 168.8 0L0 0Z" fill="#ff0066"></path></g></svg>