<svg id="visual" viewBox="0 0 450 900" width="450" height="900" xmlns="http://www.w3.org/2000/svg" xmlns:xlink="http://www.w3.org/1999/xlink" version="1.1"><rect x="0" y="0" width="450" height="900" fill="#3A0119"></rect><defs><linearGradient id="grad1_0" x1="0%" y1="0%" x2="100%" y2="100%"><stop offset="30%" stop-color="#ff0066" stop-opacity="1"></stop><stop offset="70%" stop-color="#ff0066" stop-opacity="1"></stop></linearGradient></defs><defs><linearGradient id="grad1_1" x1="0%" y1="0%" x2="100%" y2="100%"><stop offset="30%" stop-color="#ff0066" stop-opacity="1"></stop><stop offset="70%" stop-color="#3a0119" stop-opacity="1"></stop></linearGradient></defs><defs><linearGradient id="grad2_0" x1="0%" y1="0%" x2="100%" y2="100%"><stop offset="30%" stop-color="#ff0066" stop-opacity="1"></stop><stop offset="70%" stop-color="#ff0066" stop-opacity="1"></stop></linearGradient></defs><defs><linearGradient id="grad2_1" x1="0%" y1="0%" x2="100%" y2="100%"><stop offset="30%" stop-color="#3a0119" stop-opacity="1"></stop><stop offset="70%" stop-color="#ff0066" stop-opacity="1"></stop></linearGradient></defs><g transform="translate(450, 0)"><path d="M0 270C-29.3 250.6 -58.6 231.2 -91.1 219.9C-123.5 208.5 -159 205.3 -187.4 187.4C-215.7 169.5 -236.9 137 -249.4 103.3C-262 69.7 -266 34.8 -270 0L0 0Z" fill="#960041"></path><path d="M0 135C-14.7 125.3 -29.3 115.6 -45.5 109.9C-61.8 104.3 -79.5 102.6 -93.7 93.7C-107.9 84.7 -118.4 68.5 -124.7 51.7C-131 34.8 -133 17.4 -135 0L0 0Z" fill="#ff0066"></path></g><g transform="translate(0, 900)"><path d="M0 -270C37.4 -265.6 74.8 -261.2 100.3 -242.1C125.8 -222.9 139.4 -188.9 165.5 -165.5C191.5 -142 230 -129.1 249.4 -103.3C268.9 -77.5 269.5 -38.8 270 0L0 0Z" fill="#960041"></path><path d="M0 -135C18.7 -132.8 37.4 -130.6 50.1 -121C62.9 -111.4 69.7 -94.4 82.7 -82.7C95.8 -71 115 -64.6 124.7 -51.7C134.5 -38.8 134.7 -19.4 135 0L0 0Z" fill="#ff0066"></path></g></svg>