<svg id="visual" viewBox="0 0 1440 1020" width="1440" height="1020" xmlns="http://www.w3.org/2000/svg" xmlns:xlink="http://www.w3.org/1999/xlink" version="1.1"><rect x="0" y="0" width="1440" height="1020" fill="#3a0119"></rect><defs><linearGradient id="grad1_0" x1="29.2%" y1="0%" x2="100%" y2="100%"><stop offset="21.764705882352942%" stop-color="#3a0119" stop-opacity="1"></stop><stop offset="78.23529411764707%" stop-color="#3a0119" stop-opacity="1"></stop></linearGradient></defs><defs><linearGradient id="grad2_0" x1="0%" y1="0%" x2="70.8%" y2="100%"><stop offset="21.764705882352942%" stop-color="#3a0119" stop-opacity="1"></stop><stop offset="78.23529411764707%" stop-color="#3a0119" stop-opacity="1"></stop></linearGradient></defs><g transform="translate(1440, 0)"><path d="M0 485.3C-103.8 483.5 -207.6 481.8 -242.6 420.3C-277.6 358.8 -243.8 237.5 -272.8 157.5C-301.8 77.5 -393.5 38.7 -485.3 0L0 0Z" fill="#FF0066"></path></g><g transform="translate(0, 1020)"><path d="M0 -485.3C95.7 -478.9 191.5 -472.4 242.6 -420.3C293.8 -368.1 300.4 -270.2 333.4 -192.5C366.4 -114.8 425.9 -57.4 485.3 0L0 0Z" fill="#FF0066"></path></g></svg>