<svg id="visual" viewBox="0 0 540 960" width="540" height="960" xmlns="http://www.w3.org/2000/svg" xmlns:xlink="http://www.w3.org/1999/xlink" version="1.1"><rect x="0" y="0" width="540" height="960" fill="#3a0119"></rect><defs><linearGradient id="grad1_0" x1="0%" y1="0%" x2="100%" y2="100%"><stop offset="30%" stop-color="#3a0119" stop-opacity="1"></stop><stop offset="70%" stop-color="#3a0119" stop-opacity="1"></stop></linearGradient></defs><defs><linearGradient id="grad2_0" x1="0%" y1="0%" x2="100%" y2="100%"><stop offset="30%" stop-color="#3a0119" stop-opacity="1"></stop><stop offset="70%" stop-color="#3a0119" stop-opacity="1"></stop></linearGradient></defs><g transform="translate(540, 0)"><path d="M0 324C-35.4 301.6 -70.8 279.2 -110.2 266.1C-149.7 252.9 -193.2 249 -227 227C-260.8 205 -284.8 164.8 -299.3 124C-313.9 83.1 -318.9 41.6 -324 0L0 0Z" fill="#FF0066"></path></g><g transform="translate(0, 960)"><path d="M0 -324C45.4 -323.1 90.7 -322.1 124 -299.3C157.3 -276.6 178.5 -232 196.6 -196.6C214.7 -161.2 229.7 -134.9 250.4 -103.7C271.1 -72.5 297.5 -36.2 324 0L0 0Z" fill="#FF0066"></path></g></svg>