<svg id="visual" viewBox="0 0 675 900" width="675" height="900" xmlns="http://www.w3.org/2000/svg" xmlns:xlink="http://www.w3.org/1999/xlink" version="1.1"><rect x="0" y="0" width="675" height="900" fill="#3a0119"></rect><defs><linearGradient id="grad1_0" x1="0%" y1="0%" x2="100%" y2="100%"><stop offset="30%" stop-color="#3a0119" stop-opacity="1"></stop><stop offset="70%" stop-color="#3a0119" stop-opacity="1"></stop></linearGradient></defs><defs><linearGradient id="grad2_0" x1="0%" y1="0%" x2="100%" y2="100%"><stop offset="30%" stop-color="#3a0119" stop-opacity="1"></stop><stop offset="70%" stop-color="#3a0119" stop-opacity="1"></stop></linearGradient></defs><g transform="translate(675, 0)"><path d="M0 253.1C-21 229.3 -41.9 205.4 -63.3 195C-84.8 184.5 -106.7 187.4 -133.4 183.6C-160.2 179.9 -191.9 169.5 -204.8 148.8C-217.7 128.1 -211.9 97 -216.8 70.5C-221.8 43.9 -237.5 22 -253.1 0L0 0Z" fill="#FF0066"></path></g><g transform="translate(0, 900)"><path d="M0 -253.1C21.5 -234.8 43 -216.5 68.6 -211.1C94.2 -205.7 123.9 -213.2 148.8 -204.8C173.7 -196.4 193.7 -172.1 201.4 -146.4C209.2 -120.6 204.6 -93.3 211.1 -68.6C217.7 -44 235.4 -22 253.1 0L0 0Z" fill="#FF0066"></path></g></svg>