<svg id="visual" viewBox="0 0 450 900" width="450" height="900" xmlns="http://www.w3.org/2000/svg" xmlns:xlink="http://www.w3.org/1999/xlink" version="1.1"><path d="M0 365L15 375.5C30 386 60 407 90 395.2C120 383.3 150 338.7 180 347C210 355.3 240 416.7 270 414.8C300 413 330 348 360 334C390 320 420 357 435 375.5L450 394L450 901L435 901C420 901 390 901 360 901C330 901 300 901 270 901C240 901 210 901 180 901C150 901 120 901 90 901C60 901 30 901 15 901L0 901Z" fill="#3A0119" stroke-linecap="round" stroke-linejoin="miter"></path></svg>