<svg id="visual" viewBox="0 0 1440 1020" width="1440" height="1020" xmlns="http://www.w3.org/2000/svg" xmlns:xlink="http://www.w3.org/1999/xlink" version="1.1"><path d="M0 646L30 624.5C60 603 120 560 180 534.5C240 509 300 501 360 526.3C420 551.7 480 610.3 540 616.5C600 622.7 660 576.3 720 549C780 521.7 840 513.3 900 535.7C960 558 1020 611 1080 624.2C1140 637.3 1200 610.7 1260 585.2C1320 559.7 1380 535.3 1410 523.2L1440 511L1440 1021L1410 1021C1380 1021 1320 1021 1260 1021C1200 1021 1140 1021 1080 1021C1020 1021 960 1021 900 1021C840 1021 780 1021 720 1021C660 1021 600 1021 540 1021C480 1021 420 1021 360 1021C300 1021 240 1021 180 1021C120 1021 60 1021 30 1021L0 1021Z" fill="#FF0066" stroke-linecap="round" stroke-linejoin="miter"></path></svg>