<svg id="visual" viewBox="0 0 675 900" width="675" height="900" xmlns="http://www.w3.org/2000/svg" xmlns:xlink="http://www.w3.org/1999/xlink" version="1.1"><path d="M0 365L22.5 375.5C45 386 90 407 135 395.2C180 383.3 225 338.7 270 347C315 355.3 360 416.7 405 414.8C450 413 495 348 540 334C585 320 630 357 652.5 375.5L675 394L675 901L652.5 901C630 901 585 901 540 901C495 901 450 901 405 901C360 901 315 901 270 901C225 901 180 901 135 901C90 901 45 901 22.5 901L0 901Z" fill="#FF0066" stroke-linecap="round" stroke-linejoin="miter"></path></svg>