<svg id="visual" viewBox="0 0 2040 1080" width="2040" height="1080" xmlns="http://www.w3.org/2000/svg" xmlns:xlink="http://www.w3.org/1999/xlink" version="1.1"><path d="M0 572L48.5 559.5C97 547 194 522 291.2 508.3C388.3 494.7 485.7 492.3 582.8 499.5C680 506.7 777 523.3 874.2 538.7C971.3 554 1068.7 568 1165.8 568C1263 568 1360 554 1457.2 562.7C1554.3 571.3 1651.7 602.7 1748.8 587C1846 571.3 1943 508.7 1991.5 477.3L2040 446L2040 1081L1991.5 1081C1943 1081 1846 1081 1748.8 1081C1651.7 1081 1554.3 1081 1457.2 1081C1360 1081 1263 1081 1165.8 1081C1068.7 1081 971.3 1081 874.2 1081C777 1081 680 1081 582.8 1081C485.7 1081 388.3 1081 291.2 1081C194 1081 97 1081 48.5 1081L0 1081Z" fill="#020202" stroke-linecap="round" stroke-linejoin="miter"></path></svg>