<svg id="visual" viewBox="0 0 333 333" width="333" height="333" xmlns="http://www.w3.org/2000/svg" xmlns:xlink="http://www.w3.org/1999/xlink" version="1.1"><rect x="0" y="0" width="333" height="333" fill="#3A0119"></rect><defs><linearGradient id="grad1_0" x1="0%" y1="0%" x2="100%" y2="100%"><stop offset="30%" stop-color="#ff0066" stop-opacity="1"></stop><stop offset="70%" stop-color="#ff0066" stop-opacity="1"></stop></linearGradient></defs><defs><linearGradient id="grad1_1" x1="0%" y1="0%" x2="100%" y2="100%"><stop offset="30%" stop-color="#ff0066" stop-opacity="1"></stop><stop offset="70%" stop-color="#3a0119" stop-opacity="1"></stop></linearGradient></defs><defs><linearGradient id="grad2_0" x1="0%" y1="0%" x2="100%" y2="100%"><stop offset="30%" stop-color="#ff0066" stop-opacity="1"></stop><stop offset="70%" stop-color="#ff0066" stop-opacity="1"></stop></linearGradient></defs><defs><linearGradient id="grad2_1" x1="0%" y1="0%" x2="100%" y2="100%"><stop offset="30%" stop-color="#3a0119" stop-opacity="1"></stop><stop offset="70%" stop-color="#ff0066" stop-opacity="1"></stop></linearGradient></defs><g transform="translate(333, 0)"><path d="M0 176.6C-25.8 176.1 -51.6 175.7 -67 161.7C-82.3 147.7 -87.3 120.1 -103.9 103.9C-120.6 87.8 -149.1 83 -163.2 67.6C-177.2 52.2 -176.9 26.1 -176.6 0L0 0Z" fill="#960041"></path><path d="M0 88.3C-12.9 88.1 -25.8 87.8 -33.5 80.8C-41.2 73.8 -43.6 60.1 -52 52C-60.3 43.9 -74.5 41.5 -81.6 33.8C-88.6 26.1 -88.5 13 -88.3 0L0 0Z" fill="#ff0066"></path></g><g transform="translate(0, 333)"><path d="M0 -176.6C23.2 -170.4 46.5 -164.2 62.8 -151.5C79 -138.8 88.3 -119.7 106.1 -106.1C123.8 -92.4 150 -84.3 163.2 -67.6C176.3 -50.8 176.5 -25.4 176.6 0L0 0Z" fill="#960041"></path><path d="M0 -88.3C11.6 -85.2 23.2 -82.1 31.4 -75.8C39.5 -69.4 44.2 -59.8 53 -53C61.9 -46.2 75 -42.2 81.6 -33.8C88.2 -25.4 88.2 -12.7 88.3 0L0 0Z" fill="#ff0066"></path></g></svg>