<svg id="visual" viewBox="0 0 2040 1080" width="2040" height="1080" xmlns="http://www.w3.org/2000/svg" xmlns:xlink="http://www.w3.org/1999/xlink" version="1.1"><rect x="0" y="0" width="2040" height="1080" fill="#3A0119"></rect><defs><linearGradient id="grad1_0" x1="47.1%" y1="0%" x2="100%" y2="100%"><stop offset="12.222222222222225%" stop-color="#ff0066" stop-opacity="1"></stop><stop offset="87.77777777777779%" stop-color="#ff0066" stop-opacity="1"></stop></linearGradient></defs><defs><linearGradient id="grad1_1" x1="47.1%" y1="0%" x2="100%" y2="100%"><stop offset="12.222222222222225%" stop-color="#ff0066" stop-opacity="1"></stop><stop offset="87.77777777777779%" stop-color="#3a0119" stop-opacity="1"></stop></linearGradient></defs><defs><linearGradient id="grad2_0" x1="0%" y1="0%" x2="52.9%" y2="100%"><stop offset="12.222222222222225%" stop-color="#ff0066" stop-opacity="1"></stop><stop offset="87.77777777777779%" stop-color="#ff0066" stop-opacity="1"></stop></linearGradient></defs><defs><linearGradient id="grad2_1" x1="0%" y1="0%" x2="52.9%" y2="100%"><stop offset="12.222222222222225%" stop-color="#3a0119" stop-opacity="1"></stop><stop offset="87.77777777777779%" stop-color="#ff0066" stop-opacity="1"></stop></linearGradient></defs><g transform="translate(2040, 0)"><path d="M0 756C-96.8 745 -193.5 734 -289.3 698.5C-385.1 662.9 -479.9 602.9 -519 519C-558.2 435.1 -541.7 327.4 -571.9 236.9C-602.1 146.4 -679.1 73.2 -756 0L0 0Z" fill="#960041"></path><path d="M0 378C-48.4 372.5 -96.8 367 -144.7 349.2C-192.5 331.5 -239.9 301.5 -259.5 259.5C-279.1 217.6 -270.8 163.7 -285.9 118.4C-301.1 73.2 -339.5 36.6 -378 0L0 0Z" fill="#ff0066"></path></g><g transform="translate(0, 1080)"><path d="M0 -756C86.1 -714.2 172.1 -672.5 266 -642.1C359.8 -611.7 461.4 -592.7 534.6 -534.6C607.7 -476.4 652.4 -379.2 684.6 -283.6C716.8 -188 736.4 -94 756 0L0 0Z" fill="#960041"></path><path d="M0 -378C43 -357.1 86.1 -336.2 133 -321C179.9 -305.9 230.7 -296.4 267.3 -267.3C303.9 -238.2 326.2 -189.6 342.3 -141.8C358.4 -94 368.2 -47 378 0L0 0Z" fill="#ff0066"></path></g></svg>