<svg id="visual" viewBox="0 0 2040 1080" width="2040" height="1080" xmlns="http://www.w3.org/2000/svg" xmlns:xlink="http://www.w3.org/1999/xlink" version="1.1"><rect x="0" y="0" width="2040" height="1080" fill="#3A0119"></rect><defs><linearGradient id="grad1_0" x1="47.1%" y1="100%" x2="100%" y2="0%"><stop offset="12.222222222222225%" stop-color="#b00046" stop-opacity="1"></stop><stop offset="87.77777777777779%" stop-color="#b00046" stop-opacity="1"></stop></linearGradient></defs><defs><linearGradient id="grad1_1" x1="47.1%" y1="100%" x2="100%" y2="0%"><stop offset="12.222222222222225%" stop-color="#b00046" stop-opacity="1"></stop><stop offset="87.77777777777779%" stop-color="#3a0119" stop-opacity="1"></stop></linearGradient></defs><defs><linearGradient id="grad2_0" x1="0%" y1="100%" x2="52.9%" y2="0%"><stop offset="12.222222222222225%" stop-color="#b00046" stop-opacity="1"></stop><stop offset="87.77777777777779%" stop-color="#b00046" stop-opacity="1"></stop></linearGradient></defs><defs><linearGradient id="grad2_1" x1="0%" y1="100%" x2="52.9%" y2="0%"><stop offset="12.222222222222225%" stop-color="#3a0119" stop-opacity="1"></stop><stop offset="87.77777777777779%" stop-color="#b00046" stop-opacity="1"></stop></linearGradient></defs><g transform="translate(2040, 1080)"><path d="M-810 0C-810.8 -117.3 -811.6 -234.6 -748.3 -310C-685.1 -385.4 -557.9 -418.9 -473.1 -473.1C-388.2 -527.2 -345.8 -601.9 -274 -661.5C-202.2 -721.1 -101.1 -765.5 0 -810L0 0Z" fill="#720031"></path><path d="M-405 0C-405.4 -58.6 -405.8 -117.3 -374.2 -155C-342.6 -192.7 -278.9 -209.5 -236.5 -236.5C-194.1 -263.6 -172.9 -301 -137 -330.7C-101.1 -360.5 -50.6 -382.8 0 -405L0 0Z" fill="#b00046"></path></g><g transform="translate(0, 0)"><path d="M810 0C794.7 100.6 779.4 201.2 746.5 309.2C713.6 417.3 663.1 532.8 572.8 572.8C482.5 612.8 352.4 577.3 250.3 604.2C148.2 631.2 74.1 720.6 0 810L0 0Z" fill="#720031"></path><path d="M405 0C397.4 50.3 389.7 100.6 373.2 154.6C356.8 208.6 331.5 266.4 286.4 286.4C241.2 306.4 176.2 288.6 125.1 302.1C74.1 315.6 37 360.3 0 405L0 0Z" fill="#b00046"></path></g></svg>