<svg id="visual" viewBox="0 0 450 700" width="450" height="700" xmlns="http://www.w3.org/2000/svg" xmlns:xlink="http://www.w3.org/1999/xlink" version="1.1"><rect x="0" y="0" width="450" height="700" fill="#3A0119"></rect><defs><linearGradient id="grad1_0" x1="0%" y1="100%" x2="100%" y2="0%"><stop offset="30%" stop-color="#b00046" stop-opacity="1"></stop><stop offset="70%" stop-color="#b00046" stop-opacity="1"></stop></linearGradient></defs><defs><linearGradient id="grad1_1" x1="0%" y1="100%" x2="100%" y2="0%"><stop offset="30%" stop-color="#b00046" stop-opacity="1"></stop><stop offset="70%" stop-color="#3a0119" stop-opacity="1"></stop></linearGradient></defs><defs><linearGradient id="grad2_0" x1="0%" y1="100%" x2="100%" y2="0%"><stop offset="30%" stop-color="#b00046" stop-opacity="1"></stop><stop offset="70%" stop-color="#b00046" stop-opacity="1"></stop></linearGradient></defs><defs><linearGradient id="grad2_1" x1="0%" y1="100%" x2="100%" y2="0%"><stop offset="30%" stop-color="#3a0119" stop-opacity="1"></stop><stop offset="70%" stop-color="#b00046" stop-opacity="1"></stop></linearGradient></defs><g transform="translate(450, 700)"><path d="M-312.1 0C-281 -30.5 -250 -61 -237.4 -98.3C-224.9 -135.7 -230.8 -179.8 -214.3 -214.3C-197.8 -248.7 -158.9 -273.6 -119.4 -288.3C-80 -303 -40 -307.5 0 -312.1L0 0Z" fill="#720031"></path><path d="M-156 0C-140.5 -15.3 -125 -30.5 -118.7 -49.2C-112.4 -67.8 -115.4 -89.9 -107.1 -107.1C-98.9 -124.4 -79.4 -136.8 -59.7 -144.2C-40 -151.5 -20 -153.8 0 -156L0 0Z" fill="#b00046"></path></g><g transform="translate(0, 0)"><path d="M312.1 0C280.1 29.5 248.1 59.1 237.4 98.3C226.8 137.6 237.4 186.7 220.7 220.7C204 254.7 160 273.7 118.6 286.4C77.3 299.1 38.7 305.6 0 312.1L0 0Z" fill="#720031"></path><path d="M156 0C140 14.8 124.1 29.5 118.7 49.2C113.4 68.8 118.7 93.3 110.3 110.3C102 127.3 80 136.8 59.3 143.2C38.7 149.6 19.3 152.8 0 156L0 0Z" fill="#b00046"></path></g></svg>