<svg id="visual" viewBox="0 0 2040 1080" width="2040" height="1080" xmlns="http://www.w3.org/2000/svg" xmlns:xlink="http://www.w3.org/1999/xlink" version="1.1"><rect x="0" y="0" width="2040" height="1080" fill="#4f0221"></rect><path d="M0 426L48.5 434.2C97 442.3 194 458.7 291.2 472.2C388.3 485.7 485.7 496.3 582.8 449.7C680 403 777 299 874.2 251.2C971.3 203.3 1068.7 211.7 1165.8 232.3C1263 253 1360 286 1457.2 306.5C1554.3 327 1651.7 335 1748.8 342.8C1846 350.7 1943 358.3 1991.5 362.2L2040 366L2040 1081L1991.5 1081C1943 1081 1846 1081 1748.8 1081C1651.7 1081 1554.3 1081 1457.2 1081C1360 1081 1263 1081 1165.8 1081C1068.7 1081 971.3 1081 874.2 1081C777 1081 680 1081 582.8 1081C485.7 1081 388.3 1081 291.2 1081C194 1081 97 1081 48.5 1081L0 1081Z" fill="#3a0119"></path><path d="M0 440L48.5 435.5C97 431 194 422 291.2 433.7C388.3 445.3 485.7 477.7 582.8 507C680 536.3 777 562.7 874.2 553.3C971.3 544 1068.7 499 1165.8 508.3C1263 517.7 1360 581.3 1457.2 567.3C1554.3 553.3 1651.7 461.7 1748.8 459.2C1846 456.7 1943 543.3 1991.5 586.7L2040 630L2040 1081L1991.5 1081C1943 1081 1846 1081 1748.8 1081C1651.7 1081 1554.3 1081 1457.2 1081C1360 1081 1263 1081 1165.8 1081C1068.7 1081 971.3 1081 874.2 1081C777 1081 680 1081 582.8 1081C485.7 1081 388.3 1081 291.2 1081C194 1081 97 1081 48.5 1081L0 1081Z" fill="#42021d"></path><path d="M0 755L48.5 724.7C97 694.3 194 633.7 291.2 601.8C388.3 570 485.7 567 582.8 577C680 587 777 610 874.2 600.5C971.3 591 1068.7 549 1165.8 569C1263 589 1360 671 1457.2 680C1554.3 689 1651.7 625 1748.8 625.2C1846 625.3 1943 689.7 1991.5 721.8L2040 754L2040 1081L1991.5 1081C1943 1081 1846 1081 1748.8 1081C1651.7 1081 1554.3 1081 1457.2 1081C1360 1081 1263 1081 1165.8 1081C1068.7 1081 971.3 1081 874.2 1081C777 1081 680 1081 582.8 1081C485.7 1081 388.3 1081 291.2 1081C194 1081 97 1081 48.5 1081L0 1081Z" fill="#4b0321"></path><path d="M0 713L48.5 728.8C97 744.7 194 776.3 291.2 796.7C388.3 817 485.7 826 582.8 817.2C680 808.3 777 781.7 874.2 782.2C971.3 782.7 1068.7 810.3 1165.8 829C1263 847.7 1360 857.3 1457.2 839.8C1554.3 822.3 1651.7 777.7 1748.8 772.3C1846 767 1943 801 1991.5 818L2040 835L2040 1081L1991.5 1081C1943 1081 1846 1081 1748.8 1081C1651.7 1081 1554.3 1081 1457.2 1081C1360 1081 1263 1081 1165.8 1081C1068.7 1081 971.3 1081 874.2 1081C777 1081 680 1081 582.8 1081C485.7 1081 388.3 1081 291.2 1081C194 1081 97 1081 48.5 1081L0 1081Z" fill="#540425"></path><path d="M0 943L48.5 950.2C97 957.3 194 971.7 291.2 971.7C388.3 971.7 485.7 957.3 582.8 931.2C680 905 777 867 874.2 868.5C971.3 870 1068.7 911 1165.8 913.8C1263 916.7 1360 881.3 1457.2 878C1554.3 874.7 1651.7 903.3 1748.8 911.5C1846 919.7 1943 907.3 1991.5 901.2L2040 895L2040 1081L1991.5 1081C1943 1081 1846 1081 1748.8 1081C1651.7 1081 1554.3 1081 1457.2 1081C1360 1081 1263 1081 1165.8 1081C1068.7 1081 971.3 1081 874.2 1081C777 1081 680 1081 582.8 1081C485.7 1081 388.3 1081 291.2 1081C194 1081 97 1081 48.5 1081L0 1081Z" fill="#5d0629"></path></svg>