<svg id="visual" viewBox="0 0 2040 1080" width="2040" height="1080" xmlns="http://www.w3.org/2000/svg" xmlns:xlink="http://www.w3.org/1999/xlink" version="1.1"><path d="M0 411L34 378.7C68 346.3 136 281.7 204 272.7C272 263.7 340 310.3 408 306.7C476 303 544 249 612 223.8C680 198.7 748 202.3 816 206C884 209.7 952 213.3 1020 206.2C1088 199 1156 181 1224 193.7C1292 206.3 1360 249.7 1428 300C1496 350.3 1564 407.7 1632 423.8C1700 440 1768 415 1836 397C1904 379 1972 368 2006 362.5L2040 357L2040 0L2006 0C1972 0 1904 0 1836 0C1768 0 1700 0 1632 0C1564 0 1496 0 1428 0C1360 0 1292 0 1224 0C1156 0 1088 0 1020 0C952 0 884 0 816 0C748 0 680 0 612 0C544 0 476 0 408 0C340 0 272 0 204 0C136 0 68 0 34 0L0 0Z" fill="#c1004d"></path><path d="M0 746L34 692C68 638 136 530 204 512C272 494 340 566 408 585.8C476 605.7 544 573.3 612 521.2C680 469 748 397 816 393.3C884 389.7 952 454.3 1020 477.7C1088 501 1156 483 1224 486.7C1292 490.3 1360 515.7 1428 542.7C1496 569.7 1564 598.3 1632 616.3C1700 634.3 1768 641.7 1836 647.2C1904 652.7 1972 656.3 2006 658.2L2040 660L2040 355L2006 360.5C1972 366 1904 377 1836 395C1768 413 1700 438 1632 421.8C1564 405.7 1496 348.3 1428 298C1360 247.7 1292 204.3 1224 191.7C1156 179 1088 197 1020 204.2C952 211.3 884 207.7 816 204C748 200.3 680 196.7 612 221.8C544 247 476 301 408 304.7C340 308.3 272 261.7 204 270.7C136 279.7 68 344.3 34 376.7L0 409Z" fill="#91003d"></path><path d="M0 833L34 798.7C68 764.3 136 695.7 204 679.3C272 663 340 699 408 699C476 699 544 663 612 621.7C680 580.3 748 533.7 816 551.7C884 569.7 952 652.3 1020 683C1088 713.7 1156 692.3 1224 697.8C1292 703.3 1360 735.7 1428 759C1496 782.3 1564 796.7 1632 805.7C1700 814.7 1768 818.3 1836 813C1904 807.7 1972 793.3 2006 786.2L2040 779L2040 658L2006 656.2C1972 654.3 1904 650.7 1836 645.2C1768 639.7 1700 632.3 1632 614.3C1564 596.3 1496 567.7 1428 540.7C1360 513.7 1292 488.3 1224 484.7C1156 481 1088 499 1020 475.7C952 452.3 884 387.7 816 391.3C748 395 680 467 612 519.2C544 571.3 476 603.7 408 583.8C340 564 272 492 204 510C136 528 68 636 34 690L0 744Z" fill="#64012b"></path><path d="M0 1081L34 1081C68 1081 136 1081 204 1081C272 1081 340 1081 408 1081C476 1081 544 1081 612 1081C680 1081 748 1081 816 1081C884 1081 952 1081 1020 1081C1088 1081 1156 1081 1224 1081C1292 1081 1360 1081 1428 1081C1496 1081 1564 1081 1632 1081C1700 1081 1768 1081 1836 1081C1904 1081 1972 1081 2006 1081L2040 1081L2040 777L2006 784.2C1972 791.3 1904 805.7 1836 811C1768 816.3 1700 812.7 1632 803.7C1564 794.7 1496 780.3 1428 757C1360 733.7 1292 701.3 1224 695.8C1156 690.3 1088 711.7 1020 681C952 650.3 884 567.7 816 549.7C748 531.7 680 578.3 612 619.7C544 661 476 697 408 697C340 697 272 661 204 677.3C136 693.7 68 762.3 34 796.7L0 831Z" fill="#3a0119"></path></svg>