<svg id="visual" viewBox="0 0 675 900" width="675" height="900" xmlns="http://www.w3.org/2000/svg" xmlns:xlink="http://www.w3.org/1999/xlink" version="1.1"><path d="M0 343L11.3 316C22.7 289 45.3 235 67.8 227.5C90.3 220 112.7 259 135.2 256C157.7 253 180.3 208 202.8 187C225.3 166 247.7 169 270.2 172C292.7 175 315.3 178 337.8 172C360.3 166 382.7 151 405 161.5C427.3 172 449.7 208 472.2 250C494.7 292 517.3 340 540 353.5C562.7 367 585.3 346 607.8 331C630.3 316 652.7 307 663.8 302.5L675 298L675 0L663.8 0C652.7 0 630.3 0 607.8 0C585.3 0 562.7 0 540 0C517.3 0 494.7 0 472.2 0C449.7 0 427.3 0 405 0C382.7 0 360.3 0 337.8 0C315.3 0 292.7 0 270.2 0C247.7 0 225.3 0 202.8 0C180.3 0 157.7 0 135.2 0C112.7 0 90.3 0 67.8 0C45.3 0 22.7 0 11.3 0L0 0Z" fill="#c1004d"></path><path d="M0 622L11.3 577C22.7 532 45.3 442 67.8 427C90.3 412 112.7 472 135.2 488.5C157.7 505 180.3 478 202.8 434.5C225.3 391 247.7 331 270.2 328C292.7 325 315.3 379 337.8 398.5C360.3 418 382.7 403 405 406C427.3 409 449.7 430 472.2 452.5C494.7 475 517.3 499 540 514C562.7 529 585.3 535 607.8 539.5C630.3 544 652.7 547 663.8 548.5L675 550L675 296L663.8 300.5C652.7 305 630.3 314 607.8 329C585.3 344 562.7 365 540 351.5C517.3 338 494.7 290 472.2 248C449.7 206 427.3 170 405 159.5C382.7 149 360.3 164 337.8 170C315.3 176 292.7 173 270.2 170C247.7 167 225.3 164 202.8 185C180.3 206 157.7 251 135.2 254C112.7 257 90.3 218 67.8 225.5C45.3 233 22.7 287 11.3 314L0 341Z" fill="#91003d"></path><path d="M0 694L11.3 665.5C22.7 637 45.3 580 67.8 566.5C90.3 553 112.7 583 135.2 583C157.7 583 180.3 553 202.8 518.5C225.3 484 247.7 445 270.2 460C292.7 475 315.3 544 337.8 569.5C360.3 595 382.7 577 405 581.5C427.3 586 449.7 613 472.2 632.5C494.7 652 517.3 664 540 671.5C562.7 679 585.3 682 607.8 677.5C630.3 673 652.7 661 663.8 655L675 649L675 548L663.8 546.5C652.7 545 630.3 542 607.8 537.5C585.3 533 562.7 527 540 512C517.3 497 494.7 473 472.2 450.5C449.7 428 427.3 407 405 404C382.7 401 360.3 416 337.8 396.5C315.3 377 292.7 323 270.2 326C247.7 329 225.3 389 202.8 432.5C180.3 476 157.7 503 135.2 486.5C112.7 470 90.3 410 67.8 425C45.3 440 22.7 530 11.3 575L0 620Z" fill="#64012b"></path><path d="M0 901L11.3 901C22.7 901 45.3 901 67.8 901C90.3 901 112.7 901 135.2 901C157.7 901 180.3 901 202.8 901C225.3 901 247.7 901 270.2 901C292.7 901 315.3 901 337.8 901C360.3 901 382.7 901 405 901C427.3 901 449.7 901 472.2 901C494.7 901 517.3 901 540 901C562.7 901 585.3 901 607.8 901C630.3 901 652.7 901 663.8 901L675 901L675 647L663.8 653C652.7 659 630.3 671 607.8 675.5C585.3 680 562.7 677 540 669.5C517.3 662 494.7 650 472.2 630.5C449.7 611 427.3 584 405 579.5C382.7 575 360.3 593 337.8 567.5C315.3 542 292.7 473 270.2 458C247.7 443 225.3 482 202.8 516.5C180.3 551 157.7 581 135.2 581C112.7 581 90.3 551 67.8 564.5C45.3 578 22.7 635 11.3 663.5L0 692Z" fill="#3a0119"></path></svg>