<svg id="visual" viewBox="0 0 333 333" width="333" height="333" xmlns="http://www.w3.org/2000/svg" xmlns:xlink="http://www.w3.org/1999/xlink" version="1.1"><path d="M0 51L7 51C14 51 28 51 41.8 51C55.7 51 69.3 51 83.2 48.8C97 46.7 111 42.3 125 39C139 35.7 153 33.3 166.8 32.7C180.7 32 194.3 33 208.2 32.5C222 32 236 30 249.8 30C263.7 30 277.3 32 291.2 32C305 32 319 30 326 29L333 28L333 0L326 0C319 0 305 0 291.2 0C277.3 0 263.7 0 249.8 0C236 0 222 0 208.2 0C194.3 0 180.7 0 166.8 0C153 0 139 0 125 0C111 0 97 0 83.2 0C69.3 0 55.7 0 41.8 0C28 0 14 0 7 0L0 0Z" fill="#bc044e"></path><path d="M0 118L7 119.7C14 121.3 28 124.7 41.8 128C55.7 131.3 69.3 134.7 83.2 135.2C97 135.7 111 133.3 125 130.5C139 127.7 153 124.3 166.8 119.3C180.7 114.3 194.3 107.7 208.2 106.5C222 105.3 236 109.7 249.8 114.7C263.7 119.7 277.3 125.3 291.2 131C305 136.7 319 142.3 326 145.2L333 148L333 26L326 27C319 28 305 30 291.2 30C277.3 30 263.7 28 249.8 28C236 28 222 30 208.2 30.5C194.3 31 180.7 30 166.8 30.7C153 31.3 139 33.7 125 37C111 40.3 97 44.7 83.2 46.8C69.3 49 55.7 49 41.8 49C28 49 14 49 7 49L0 49Z" fill="#990341"></path><path d="M0 154L7 156.3C14 158.7 28 163.3 41.8 169.5C55.7 175.7 69.3 183.3 83.2 186.5C97 189.7 111 188.3 125 185.5C139 182.7 153 178.3 166.8 173.5C180.7 168.7 194.3 163.3 208.2 163.3C222 163.3 236 168.7 249.8 169.7C263.7 170.7 277.3 167.3 291.2 170.2C305 173 319 182 326 186.5L333 191L333 146L326 143.2C319 140.3 305 134.7 291.2 129C277.3 123.3 263.7 117.7 249.8 112.7C236 107.7 222 103.3 208.2 104.5C194.3 105.7 180.7 112.3 166.8 117.3C153 122.3 139 125.7 125 128.5C111 131.3 97 133.7 83.2 133.2C69.3 132.7 55.7 129.3 41.8 126C28 122.7 14 119.3 7 117.7L0 116Z" fill="#780234"></path><path d="M0 224L7 224.5C14 225 28 226 41.8 231.5C55.7 237 69.3 247 83.2 249.3C97 251.7 111 246.3 125 244.2C139 242 153 243 166.8 240.7C180.7 238.3 194.3 232.7 208.2 228.8C222 225 236 223 249.8 222.5C263.7 222 277.3 223 291.2 226.3C305 229.7 319 235.3 326 238.2L333 241L333 189L326 184.5C319 180 305 171 291.2 168.2C277.3 165.3 263.7 168.7 249.8 167.7C236 166.7 222 161.3 208.2 161.3C194.3 161.3 180.7 166.7 166.8 171.5C153 176.3 139 180.7 125 183.5C111 186.3 97 187.7 83.2 184.5C69.3 181.3 55.7 173.7 41.8 167.5C28 161.3 14 156.7 7 154.3L0 152Z" fill="#580127"></path><path d="M0 334L7 334C14 334 28 334 41.8 334C55.7 334 69.3 334 83.2 334C97 334 111 334 125 334C139 334 153 334 166.8 334C180.7 334 194.3 334 208.2 334C222 334 236 334 249.8 334C263.7 334 277.3 334 291.2 334C305 334 319 334 326 334L333 334L333 239L326 236.2C319 233.3 305 227.7 291.2 224.3C277.3 221 263.7 220 249.8 220.5C236 221 222 223 208.2 226.8C194.3 230.7 180.7 236.3 166.8 238.7C153 241 139 240 125 242.2C111 244.3 97 249.7 83.2 247.3C69.3 245 55.7 235 41.8 229.5C28 224 14 223 7 222.5L0 222Z" fill="#3a0119"></path></svg>