<svg id="visual" viewBox="0 0 2040 1080" width="2040" height="1080" xmlns="http://www.w3.org/2000/svg" xmlns:xlink="http://www.w3.org/1999/xlink" version="1.1"><rect x="0" y="0" width="2040" height="1080" fill="#3A0119"></rect><defs><linearGradient id="grad1_0" x1="47.1%" y1="0%" x2="100%" y2="100%"><stop offset="12.222222222222225%" stop-color="#ff0066" stop-opacity="1"></stop><stop offset="87.77777777777779%" stop-color="#ff0066" stop-opacity="1"></stop></linearGradient></defs><defs><linearGradient id="grad1_1" x1="47.1%" y1="0%" x2="100%" y2="100%"><stop offset="12.222222222222225%" stop-color="#ff0066" stop-opacity="1"></stop><stop offset="87.77777777777779%" stop-color="#3a0119" stop-opacity="1"></stop></linearGradient></defs><defs><linearGradient id="grad2_0" x1="0%" y1="0%" x2="52.9%" y2="100%"><stop offset="12.222222222222225%" stop-color="#ff0066" stop-opacity="1"></stop><stop offset="87.77777777777779%" stop-color="#ff0066" stop-opacity="1"></stop></linearGradient></defs><defs><linearGradient id="grad2_1" x1="0%" y1="0%" x2="52.9%" y2="100%"><stop offset="12.222222222222225%" stop-color="#3a0119" stop-opacity="1"></stop><stop offset="87.77777777777779%" stop-color="#ff0066" stop-opacity="1"></stop></linearGradient></defs><g transform="translate(2040, 0)"><path d="M0 594C-60.9 543.8 -121.8 493.6 -195.2 471.2C-268.5 448.8 -354.2 454.1 -417.9 417.9C-481.6 381.7 -523.1 303.9 -548.8 227.3C-574.5 150.7 -584.2 75.4 -594 0L0 0Z" fill="#960041"></path><path d="M0 297C-30.5 271.9 -60.9 246.8 -97.6 235.6C-134.3 224.4 -177.1 227.1 -209 209C-240.8 190.8 -261.6 151.9 -274.4 113.7C-287.2 75.4 -292.1 37.7 -297 0L0 0Z" fill="#ff0066"></path></g><g transform="translate(0, 1080)"><path d="M0 -594C86.9 -595 173.8 -596 227.3 -548.8C280.8 -501.6 300.8 -406.2 346.5 -346.5C392.2 -286.8 463.5 -262.7 509.1 -210.9C554.6 -159.1 574.3 -79.5 594 0L0 0Z" fill="#960041"></path><path d="M0 -297C43.5 -297.5 86.9 -298 113.7 -274.4C140.4 -250.8 150.4 -203.1 173.2 -173.2C196.1 -143.4 231.8 -131.3 254.5 -105.4C277.3 -79.5 287.1 -39.8 297 0L0 0Z" fill="#ff0066"></path></g></svg>