<svg id="visual" viewBox="0 0 2040 1080" width="2040" height="1080" xmlns="http://www.w3.org/2000/svg" xmlns:xlink="http://www.w3.org/1999/xlink" version="1.1"><path d="M0 131L34 138.2C68 145.3 136 159.7 204 168.7C272 177.7 340 181.3 408 188.5C476 195.7 544 206.3 612 208C680 209.7 748 202.3 816 189.7C884 177 952 159 1020 155.5C1088 152 1156 163 1224 161.3C1292 159.7 1360 145.3 1428 143.5C1496 141.7 1564 152.3 1632 164.8C1700 177.3 1768 191.7 1836 195.3C1904 199 1972 192 2006 188.5L2040 185L2040 0L2006 0C1972 0 1904 0 1836 0C1768 0 1700 0 1632 0C1564 0 1496 0 1428 0C1360 0 1292 0 1224 0C1156 0 1088 0 1020 0C952 0 884 0 816 0C748 0 680 0 612 0C544 0 476 0 408 0C340 0 272 0 204 0C136 0 68 0 34 0L0 0Z" fill="#ff0066"></path><path d="M0 422L34 414.8C68 407.7 136 393.3 204 391.5C272 389.7 340 400.3 408 400.3C476 400.3 544 389.7 612 398.7C680 407.7 748 436.3 816 441.7C884 447 952 429 1020 420C1088 411 1156 411 1224 396.7C1292 382.3 1360 353.7 1428 348.3C1496 343 1564 361 1632 386.2C1700 411.3 1768 443.7 1836 445.5C1904 447.3 1972 418.7 2006 404.3L2040 390L2040 183L2006 186.5C1972 190 1904 197 1836 193.3C1768 189.7 1700 175.3 1632 162.8C1564 150.3 1496 139.7 1428 141.5C1360 143.3 1292 157.7 1224 159.3C1156 161 1088 150 1020 153.5C952 157 884 175 816 187.7C748 200.3 680 207.7 612 206C544 204.3 476 193.7 408 186.5C340 179.3 272 175.7 204 166.7C136 157.7 68 143.3 34 136.2L0 129Z" fill="#b8004e"></path><path d="M0 822L34 818.3C68 814.7 136 807.3 204 783.8C272 760.3 340 720.7 408 724.3C476 728 544 775 612 793C680 811 748 800 816 796.3C884 792.7 952 796.3 1020 778.3C1088 760.3 1156 720.7 1224 684.7C1292 648.7 1360 616.3 1428 636.2C1496 656 1564 728 1632 747.8C1700 767.7 1768 735.3 1836 737.2C1904 739 1972 775 2006 793L2040 811L2040 388L2006 402.3C1972 416.7 1904 445.3 1836 443.5C1768 441.7 1700 409.3 1632 384.2C1564 359 1496 341 1428 346.3C1360 351.7 1292 380.3 1224 394.7C1156 409 1088 409 1020 418C952 427 884 445 816 439.7C748 434.3 680 405.7 612 396.7C544 387.7 476 398.3 408 398.3C340 398.3 272 387.7 204 389.5C136 391.3 68 405.7 34 412.8L0 420Z" fill="#760134"></path><path d="M0 1081L34 1081C68 1081 136 1081 204 1081C272 1081 340 1081 408 1081C476 1081 544 1081 612 1081C680 1081 748 1081 816 1081C884 1081 952 1081 1020 1081C1088 1081 1156 1081 1224 1081C1292 1081 1360 1081 1428 1081C1496 1081 1564 1081 1632 1081C1700 1081 1768 1081 1836 1081C1904 1081 1972 1081 2006 1081L2040 1081L2040 809L2006 791C1972 773 1904 737 1836 735.2C1768 733.3 1700 765.7 1632 745.8C1564 726 1496 654 1428 634.2C1360 614.3 1292 646.7 1224 682.7C1156 718.7 1088 758.3 1020 776.3C952 794.3 884 790.7 816 794.3C748 798 680 809 612 791C544 773 476 726 408 722.3C340 718.7 272 758.3 204 781.8C136 805.3 68 812.7 34 816.3L0 820Z" fill="#3a0119"></path></svg>